<svg width="20" height="21" viewBox="0 0 20 21" fill="none" xmlns="http://www.w3.org/2000/svg">
<path fill-rule="evenodd" clip-rule="evenodd" d="M3.95376 1.09288C4.70602 0.339107 6.01025 0.250485 6.78044 1.13917L9.71802 4.53002C9.72572 4.53832 9.73329 4.54677 9.74074 4.55538C10.4356 5.35755 10.2898 6.50951 9.60531 7.19736L8.73574 8.06758C9.67145 9.55769 10.9303 10.8185 12.419 11.7564L13.2889 10.8852C13.9739 10.1986 15.1223 10.0518 15.924 10.7399C15.924 10.74 15.924 10.7399 15.924 10.7399L19.354 13.6843C20.2499 14.454 20.1624 15.7643 19.408 16.5187L16.9516 18.9794C15.9535 19.9788 14.4239 20.3081 13.1434 19.6861C7.76022 17.0766 3.41579 12.7259 0.814022 7.339C0.193561 6.05857 0.522369 4.53001 1.51951 3.5315M1.51951 3.5315L3.95376 1.09288C3.9538 1.09283 3.95371 1.09292 3.95376 1.09288M12.0799 12.0964C12.083 12.0931 12.0861 12.0899 12.0893 12.0867L12.0799 12.0964ZM8.39725 8.40594L8.40713 8.39628C8.40388 8.39953 8.40058 8.40275 8.39725 8.40594ZM8.1731 5.80117L5.34195 2.53316L2.93499 4.94444C2.48373 5.39625 2.39752 6.02111 2.61415 6.46749L2.61497 6.46919C5.02091 11.4507 9.03843 15.4738 14.0165 17.8867C14.4615 18.1029 15.0853 18.0177 15.5361 17.5665C15.5362 17.5664 15.5361 17.5666 15.5361 17.5665L17.968 15.1304L14.6879 12.3147L13.5166 13.4877C13.3057 13.7042 13.0304 13.8469 12.7316 13.8945C12.4279 13.9428 12.1168 13.8901 11.846 13.7445C11.8374 13.7399 11.8289 13.7352 11.8205 13.7303C9.71645 12.5187 7.97113 10.7711 6.76226 8.66549C6.75762 8.65741 6.75309 8.64926 6.74868 8.64105C6.60309 8.37019 6.55037 8.05905 6.59861 7.75535C6.64606 7.45663 6.78861 7.18133 7.00488 6.97025L8.1731 5.80117ZM14.6213 12.2575C14.6213 12.2576 14.6212 12.2574 14.6213 12.2575Z" fill="white"/>
</svg>
