<svg width="21" height="17" viewBox="0 0 21 17" fill="none" xmlns="http://www.w3.org/2000/svg">
<path d="M19.8438 0.59375H1.15625C0.758691 0.59375 0.4375 0.914941 0.4375 1.3125V15.6875C0.4375 16.0851 0.758691 16.4062 1.15625 16.4062H19.8438C20.2413 16.4062 20.5625 16.0851 20.5625 15.6875V1.3125C20.5625 0.914941 20.2413 0.59375 19.8438 0.59375ZM18.9453 3.08242V14.7891H2.05469V3.08242L1.43477 2.59951L2.31748 1.46523L3.27881 2.21318H17.7234L18.6848 1.46523L19.5675 2.59951L18.9453 3.08242ZM17.7234 2.21094L10.5 7.82617L3.27656 2.21094L2.31523 1.46299L1.43252 2.59727L2.05244 3.08018L9.7251 9.0458C9.94575 9.21722 10.2172 9.31028 10.4966 9.31028C10.776 9.31028 11.0475 9.21722 11.2682 9.0458L18.9453 3.08242L19.5652 2.59951L18.6825 1.46523L17.7234 2.21094Z" fill="#DC754E"/>
</svg>
