<svg width="31" height="36" viewBox="0 0 31 36" fill="none" xmlns="http://www.w3.org/2000/svg">
<path d="M29.6276 7.63393C30.0043 8.00893 30.3273 8.51786 30.5964 9.16071C30.8654 9.80357 31 10.3929 31 10.9286V34.0714C31 34.6071 30.8116 35.0625 30.4349 35.4375C30.0582 35.8125 29.6007 36 29.0625 36H1.9375C1.39931 36 0.94184 35.8125 0.565104 35.4375C0.188368 35.0625 0 34.6071 0 34.0714V1.92857C0 1.39286 0.188368 0.9375 0.565104 0.5625C0.94184 0.1875 1.39931 0 1.9375 0H20.0208C20.559 0 21.151 0.133929 21.7969 0.401786C22.4427 0.669643 22.954 0.991071 23.3307 1.36607L29.6276 7.63393ZM20.6667 2.73214V10.2857H28.2552C28.1207 9.89732 27.9727 9.62277 27.8112 9.46205L21.4941 3.17411C21.3327 3.01339 21.0569 2.86607 20.6667 2.73214ZM28.4167 33.4286V12.8571H20.0208C19.4826 12.8571 19.0252 12.6696 18.6484 12.2946C18.2717 11.9196 18.0833 11.4643 18.0833 10.9286V2.57143H2.58333V33.4286H28.4167ZM18.043 21.5156C18.487 21.8638 19.0521 22.2388 19.7383 22.6406C20.5321 22.5469 21.3192 22.5 22.0996 22.5C24.0775 22.5 25.2682 22.8281 25.6719 23.4844C25.8872 23.779 25.9006 24.1272 25.7122 24.529C25.7122 24.5424 25.7055 24.5558 25.6921 24.5692L25.6517 24.6094V24.6295C25.571 25.1384 25.0933 25.3929 24.2188 25.3929C23.5729 25.3929 22.7993 25.2589 21.8978 24.9911C20.9963 24.7232 20.1217 24.3683 19.2741 23.9263C16.3006 24.2478 13.6634 24.8036 11.3626 25.5938C9.30404 29.1027 7.676 30.8571 6.47852 30.8571C6.27669 30.8571 6.08832 30.8103 5.91341 30.7165L5.42904 30.4754C5.41558 30.4621 5.37522 30.4286 5.30794 30.375C5.17339 30.2411 5.13303 30 5.18685 29.6518C5.30794 29.1161 5.68468 28.5033 6.31706 27.8136C6.94944 27.1239 7.83746 26.4777 8.98112 25.875C9.16949 25.7545 9.32422 25.7946 9.44531 25.9955C9.47222 26.0223 9.48568 26.0491 9.48568 26.0759C10.1853 24.9375 10.9052 23.6183 11.6452 22.1183C12.5601 20.2969 13.2598 18.5424 13.7441 16.8549C13.4212 15.7567 13.216 14.6886 13.1286 13.6507C13.0411 12.6127 13.0849 11.7589 13.2598 11.0893C13.4078 10.5536 13.6903 10.2857 14.1074 10.2857H14.5514C14.8609 10.2857 15.0964 10.3862 15.2578 10.5871C15.5 10.8683 15.5605 11.3237 15.4395 11.9531C15.4125 12.0335 15.3856 12.0871 15.3587 12.1138C15.3722 12.154 15.3789 12.2076 15.3789 12.2746V12.8772C15.352 14.5246 15.2578 15.8103 15.0964 16.7344C15.8364 18.9308 16.8186 20.5246 18.043 21.5156ZM6.41797 29.7723C7.11762 29.4509 8.03928 28.3929 9.18294 26.5982C8.49674 27.1339 7.90809 27.6964 7.41699 28.2857C6.92589 28.875 6.59288 29.3705 6.41797 29.7723ZM14.4505 11.2902C14.2487 11.8527 14.2352 12.7366 14.4102 13.942C14.4236 13.8482 14.4707 13.5536 14.5514 13.058C14.5514 13.0179 14.5985 12.7299 14.6927 12.1942C14.7062 12.1406 14.7331 12.0871 14.7734 12.0335C14.76 12.0201 14.7533 12.0067 14.7533 11.9933C14.7398 11.9665 14.7331 11.9464 14.7331 11.933C14.7196 11.6384 14.6322 11.3973 14.4707 11.2098C14.4707 11.2232 14.464 11.2366 14.4505 11.25V11.2902ZM11.9479 24.5692C13.7643 23.846 15.6749 23.3036 17.6797 22.942C17.6528 22.9286 17.5653 22.865 17.4173 22.7511C17.2693 22.6373 17.1617 22.5469 17.0944 22.4799C16.0718 21.5826 15.2174 20.404 14.5312 18.9442C14.168 20.096 13.6096 21.4152 12.8561 22.9018C12.4525 23.6518 12.1497 24.2076 11.9479 24.5692ZM24.9857 24.2478C24.6628 23.9263 23.7209 23.7656 22.1602 23.7656C23.1827 24.1406 24.0169 24.3281 24.6628 24.3281C24.8511 24.3281 24.9722 24.3214 25.026 24.308C25.026 24.2946 25.0126 24.2746 24.9857 24.2478Z" fill="white"/>
</svg>
