<svg width="18" height="18" viewBox="0 0 18 18" fill="none" xmlns="http://www.w3.org/2000/svg">
<path fill-rule="evenodd" clip-rule="evenodd" d="M3.86379 1.27456C4.40035 0.736822 5.30575 0.691769 5.829 1.29551L8.49193 4.36933C8.49716 4.37485 8.50228 4.3805 8.5073 4.38628C8.98079 4.93294 8.89199 5.73558 8.40381 6.22613L7.39308 7.23761C8.34156 8.85139 9.68538 10.1971 11.2978 11.1479L12.31 10.1341C12.7981 9.64491 13.5979 9.5552 14.144 10.024L17.2473 12.6879C17.8559 13.2108 17.812 14.1203 17.2739 14.6587M17.2739 14.6587L15.0509 16.8857C14.2587 17.6789 13.0585 17.9275 12.0691 17.4471C7.28032 15.1259 3.4156 11.2558 1.10116 6.46377C0.621283 5.47397 0.869636 4.27372 1.66145 3.48087C1.66148 3.48083 1.66141 3.4809 1.66145 3.48087L3.86379 1.27456M7.75968 5.0511C7.75691 5.04805 7.75416 5.04496 7.75145 5.04183L5.07331 1.95044C5.07329 1.95042 5.07333 1.95047 5.07331 1.95044C4.97901 1.84174 4.75233 1.79984 4.57168 1.98089L2.36919 4.18734C1.85031 4.70685 1.72327 5.45526 2.00123 6.02801C4.21769 10.6172 7.91922 14.3243 12.5053 16.5472C13.077 16.825 13.8246 16.6984 14.3433 16.1791L16.5662 13.9522C16.7481 13.7703 16.7059 13.5413 16.5959 13.4467M16.5959 13.4467L13.4926 10.7827C13.3895 10.6942 13.1807 10.6773 13.018 10.8404L11.9412 11.9188C11.8109 12.0532 11.6406 12.1418 11.4556 12.1712C11.2684 12.201 11.0766 12.1685 10.9097 12.0788L10.8969 12.0716C9.05524 11.0111 7.52757 9.48145 6.46945 7.63843L6.46249 7.6263C6.3727 7.45926 6.34036 7.26729 6.37011 7.08C6.39949 6.89502 6.488 6.72462 6.62228 6.59424L7.69499 5.52074C7.69509 5.52065 7.6949 5.52083 7.69499 5.52074C7.85371 5.361 7.84247 5.1582 7.75968 5.0511" fill="#DC754E"/>
</svg>
