<svg width="22" height="23" viewBox="0 0 22 23" fill="none" xmlns="http://www.w3.org/2000/svg">
<path d="M15.1987 13.4743C14.9665 13.3485 13.8098 12.7511 13.5947 12.6702C13.3795 12.5849 13.2219 12.5444 13.0664 12.796C12.9088 13.0453 12.4614 13.6001 12.3208 13.7686C12.1845 13.9348 12.046 13.955 11.8139 13.8314C10.4335 13.1037 9.52819 12.5332 8.61861 10.8868C8.3779 10.4488 8.85932 10.4803 9.30878 9.53467C9.38547 9.36846 9.34712 9.22695 9.28748 9.10117C9.22783 8.97539 8.7592 7.75801 8.56322 7.26162C8.37364 6.77871 8.17766 6.84609 8.03494 6.83711C7.89861 6.82812 7.74311 6.82812 7.58548 6.82812C7.42784 6.82812 7.17435 6.89102 6.95921 7.13584C6.74406 7.38516 6.13696 7.98486 6.13696 9.20225C6.13696 10.4196 6.97838 11.5988 7.09341 11.765C7.2127 11.9313 8.74855 14.4289 11.1066 15.5048C12.5978 16.1831 13.1814 16.2415 13.927 16.1247C14.3807 16.0528 15.3158 15.5272 15.5097 14.9455C15.7035 14.366 15.7035 13.8696 15.646 13.7663C15.5885 13.6563 15.4309 13.5934 15.1987 13.4743Z" fill="white"/>
<path d="M19.7084 7.60078C19.227 6.39463 18.5368 5.31201 17.657 4.38213C16.7773 3.45449 15.7505 2.72451 14.6045 2.21914C13.4329 1.70029 12.1889 1.4375 10.9065 1.4375H10.8639C9.57306 1.44424 8.32266 1.71377 7.1468 2.24385C6.01143 2.75596 4.99321 3.48369 4.12197 4.41133C3.25073 5.33896 2.56695 6.41709 2.09405 7.61875C1.60411 8.86309 1.35701 10.186 1.3634 11.5472C1.36979 13.106 1.7234 14.6535 2.38588 16.0371V19.4512C2.38588 20.0217 2.8247 20.4844 3.36576 20.4844H6.60574C7.91792 21.1829 9.38561 21.5558 10.8639 21.5625H10.9087C12.1846 21.5625 13.4223 21.302 14.5875 20.7921C15.7271 20.2912 16.7517 19.5725 17.6294 18.6538C18.5091 17.7352 19.2014 16.6615 19.685 15.4644C20.1877 14.2245 20.4433 12.9061 20.4497 11.5449C20.4561 10.1771 20.2047 8.84961 19.7084 7.60078ZM16.4897 17.4387C14.9965 18.9975 13.0154 19.8555 10.9065 19.8555H10.8703C9.58584 19.8487 8.30987 19.5118 7.18302 18.8784L7.00408 18.7773H4.00481V15.6148L3.90895 15.4262C3.30824 14.238 2.98872 12.8926 2.98233 11.5382C2.97381 9.29883 3.7854 7.19648 5.27439 5.61299C6.76124 4.02949 8.74869 3.15352 10.8725 3.14453H10.9087C11.9738 3.14453 13.0069 3.3624 13.9804 3.79365C14.9304 4.21367 15.7825 4.81787 16.5153 5.59053C17.2459 6.36094 17.8211 7.26162 18.2194 8.26338C18.6327 9.30107 18.8393 10.4017 18.835 11.5382C18.8222 13.7753 17.9893 15.8709 16.4897 17.4387Z" fill="white"/>
</svg>
