<svg width="107" height="107" viewBox="0 0 107 107" fill="none" xmlns="http://www.w3.org/2000/svg">
<path d="M13.375 53.5H53.5V60.1875H13.375V53.5ZM6.6875 36.7812H40.125V43.4688H6.6875V36.7812Z" fill="#DC754E"/>
<path d="M100.042 55.5263L90.0105 32.1201C89.753 31.5185 89.3246 31.0057 88.7783 30.6455C88.232 30.2852 87.5919 30.0934 86.9376 30.0938H76.9063V23.4062C76.9063 22.5194 76.554 21.6689 75.9269 21.0419C75.2999 20.4148 74.4494 20.0625 73.5626 20.0625H20.0626V26.75H70.2188V68.7341C68.6952 69.6189 67.3617 70.7965 66.2954 72.1991C65.2292 73.6017 64.4511 75.2015 64.0061 76.9062H42.994C42.1801 73.7542 40.2447 71.0072 37.5503 69.1802C34.856 67.3531 31.5878 66.5714 28.3584 66.9816C25.129 67.3918 22.16 68.9657 20.008 71.4083C17.856 73.851 16.6687 76.9946 16.6687 80.25C16.6687 83.5054 17.856 86.649 20.008 89.0917C22.16 91.5343 25.129 93.1082 28.3584 93.5184C31.5878 93.9286 34.856 93.1469 37.5503 91.3198C40.2447 89.4928 42.1801 86.7458 42.994 83.5938H64.0061C64.7335 86.4635 66.397 89.0087 68.7334 90.8269C71.0699 92.645 73.9458 93.6321 76.9063 93.6321C79.8668 93.6321 82.7427 92.645 85.0792 90.8269C87.4156 89.0087 89.0791 86.4635 89.8065 83.5938H96.9688C97.8556 83.5938 98.7061 83.2415 99.3332 82.6144C99.9603 81.9873 100.313 81.1368 100.313 80.25V56.8438C100.313 56.3908 100.221 55.9425 100.042 55.5263ZM30.0938 86.9375C28.7711 86.9375 27.4782 86.5453 26.3784 85.8105C25.2787 85.0756 24.4215 84.0312 23.9154 82.8092C23.4092 81.5872 23.2768 80.2426 23.5348 78.9453C23.7928 77.6481 24.4298 76.4565 25.365 75.5212C26.3003 74.586 27.4919 73.949 28.7891 73.691C30.0864 73.433 31.431 73.5654 32.653 74.0716C33.875 74.5777 34.9194 75.4349 35.6543 76.5346C36.3891 77.6344 36.7813 78.9273 36.7813 80.25C36.7795 82.0231 36.0744 83.7231 34.8206 84.9768C33.5669 86.2306 31.8669 86.9357 30.0938 86.9375ZM76.9063 36.7812H84.7307L91.8997 53.5H76.9063V36.7812ZM76.9063 86.9375C75.5836 86.9375 74.2907 86.5453 73.1909 85.8105C72.0912 85.0756 71.234 84.0312 70.7279 82.8092C70.2217 81.5872 70.0893 80.2426 70.3473 78.9453C70.6053 77.6481 71.2423 76.4565 72.1775 75.5212C73.1128 74.586 74.3044 73.949 75.6016 73.691C76.8989 73.433 78.2435 73.5654 79.4655 74.0716C80.6875 74.5777 81.7319 75.4349 82.4668 76.5346C83.2016 77.6344 83.5938 78.9273 83.5938 80.25C83.592 82.0231 82.8869 83.7231 81.6331 84.9768C80.3794 86.2306 78.6794 86.9357 76.9063 86.9375ZM93.6251 76.9062H89.8065C89.0699 74.0421 87.4038 71.5033 85.0692 69.688C82.7346 67.8726 79.8636 66.8832 76.9063 66.875V60.1875H93.6251V76.9062Z" fill="#DC754E"/>
</svg>
