<svg width="104" height="104" viewBox="0 0 104 104" fill="none" xmlns="http://www.w3.org/2000/svg">
<path d="M88.0445 17.2555L53.5336 5.49453C53.1172 5.35234 52.5586 5.28125 52 5.28125C51.4414 5.28125 50.8828 5.35234 50.4664 5.49453L15.9555 17.2555C15.1125 17.5398 14.4219 18.5148 14.4219 19.4086V68.4023C14.4219 69.2961 15.0008 70.4742 15.7016 71.0328L50.7102 98.3125C51.0656 98.5867 51.5227 98.7289 51.9898 98.7289C52.457 98.7289 52.9242 98.5867 53.2695 98.3125L88.2781 71.0328C88.9789 70.4844 89.5578 69.3063 89.5578 68.4023V19.4086C89.5781 18.5148 88.8875 17.55 88.0445 17.2555ZM82.2656 66.4523L52 90.0352L21.7344 66.4523V23.0242L52 12.7055L82.2656 23.0242V66.4523ZM41.0516 46.0383C40.7469 45.6219 40.2594 45.368 39.7313 45.368H34.125C33.4648 45.368 33.0789 46.1195 33.4648 46.6578L46.3023 64.3297C46.4541 64.5375 46.6528 64.7065 46.8822 64.823C47.1117 64.9395 47.3653 65.0002 47.6227 65.0002C47.88 65.0002 48.1336 64.9395 48.3631 64.823C48.5925 64.7065 48.7912 64.5375 48.943 64.3297L70.5352 34.6023C70.9211 34.0641 70.5352 33.3125 69.875 33.3125H64.2687C63.7508 33.3125 63.2531 33.5664 62.9484 33.9828L47.6227 55.0875L41.0516 46.0383Z" fill="#DC754E"/>
</svg>
