<svg width="97" height="97" viewBox="0 0 97 97" fill="none" xmlns="http://www.w3.org/2000/svg">
<path d="M52.3557 46.948L64.3069 34.9967L25.705 13.3011C23.1466 11.9188 20.7499 11.7248 18.6482 13.2364L52.3557 46.948ZM66.3439 60.9402L78.768 53.9522C81.193 52.5942 82.5227 50.6703 82.5227 48.5363C82.5227 46.4064 81.193 44.4785 78.772 43.1205L67.5241 36.8034L54.8615 49.4619L66.3439 60.9402ZM16.5708 16.1747C16.3121 16.9709 16.1666 17.8601 16.1666 18.8341V78.2668C16.1666 79.8067 16.5061 81.1324 17.1205 82.1872L49.8458 49.4578L16.5708 16.1747ZM52.3557 51.9637L19.8122 84.5112C20.4346 84.7497 21.1055 84.8749 21.8128 84.8749C23.0738 84.8749 24.3874 84.5031 25.7252 83.7595L63.1308 62.7549L52.3557 51.9637Z" fill="white"/>
</svg>
