<svg width="52" height="67" viewBox="0 0 52 67" fill="none" xmlns="http://www.w3.org/2000/svg">
<path d="M25.9999 67.0002C21.3687 63.0498 17.076 58.7191 13.1666 54.0532C7.29992 47.0462 0.333255 36.6108 0.333255 26.6668C0.330711 21.5884 1.83479 16.6233 4.65513 12.3999C7.47548 8.1766 11.4853 4.88486 16.1772 2.9413C20.869 0.997743 26.032 0.489738 31.0127 1.48158C35.9934 2.47342 40.5679 4.92051 44.1573 8.51317C46.547 10.8923 48.4412 13.7218 49.7302 16.8379C51.0191 19.9539 51.6773 23.2947 51.6666 26.6668C51.6666 36.6108 44.6999 47.0462 38.8333 54.0532C34.9239 58.719 30.6311 63.0498 25.9999 67.0002ZM25.9999 15.6668C23.0825 15.6668 20.2846 16.8258 18.2217 18.8887C16.1588 20.9516 14.9999 23.7495 14.9999 26.6668C14.9999 29.5842 16.1588 32.3821 18.2217 34.445C20.2846 36.5079 23.0825 37.6668 25.9999 37.6668C28.9173 37.6668 31.7152 36.5079 33.7781 34.445C35.841 32.3821 36.9999 29.5842 36.9999 26.6668C36.9999 23.7495 35.841 20.9516 33.7781 18.8887C31.7152 16.8258 28.9173 15.6668 25.9999 15.6668Z" fill="#0E3861"/>
</svg>
