<svg width="61" height="61" viewBox="0 0 61 61" fill="none" xmlns="http://www.w3.org/2000/svg">
<path d="M57.875 23.6563H53.3125C53.3077 19.4226 51.6237 15.3637 48.63 12.37C45.6364 9.37632 41.5775 7.69235 37.3438 7.68752V3.12502C42.7871 3.13106 48.0058 5.2961 51.8549 9.14515C55.7039 12.9942 57.869 18.2129 57.875 23.6563ZM40.3847 43.0058L45.4947 37.8958C46.1787 37.2117 47.0484 36.7432 47.996 36.5486C48.9437 36.354 49.9276 36.4417 50.8259 36.8008L57.0492 39.292C57.9664 39.659 58.7527 40.2924 59.3065 41.1105C59.8603 41.9286 60.1563 42.8939 60.1563 43.8818V55.1991C60.1579 55.8718 60.0222 56.5377 59.7575 57.1561C59.4928 57.7745 59.1047 58.3323 58.617 58.7955C58.1292 59.2587 57.552 59.6175 56.9208 59.8499C56.2896 60.0823 55.6176 60.1835 54.9459 60.1471C11.3238 57.4325 2.51364 20.4853 0.877981 6.33702C0.798761 5.64533 0.866878 4.94471 1.07785 4.28124C1.28882 3.61777 1.63787 3.00648 2.10203 2.48759C2.5662 1.96869 3.13496 1.55394 3.77091 1.27062C4.40686 0.987295 5.09559 0.841824 5.79179 0.843769H16.9083C17.8963 0.843738 18.8616 1.13972 19.6797 1.69353C20.4978 2.24735 21.1312 3.03359 21.4982 3.95083L23.987 10.1741C24.3462 11.0724 24.4339 12.0563 24.2393 13.004C24.0446 13.9516 23.5762 14.8214 22.892 15.5054L17.782 20.6154C17.782 20.6154 20.6154 40.5352 40.3847 43.0058Z" fill="#0E3861"/>
</svg>
